<?xml version="1.0" standalone="no"?><!DOCTYPE svg PUBLIC "-//W3C//DTD SVG 1.1//EN" "http://www.w3.org/Graphics/SVG/1.1/DTD/svg11.dtd"><svg t="1667636454073" class="icon" viewBox="0 0 1024 1024" version="1.1" xmlns="http://www.w3.org/2000/svg" p-id="3611" width="32" height="32" xmlns:xlink="http://www.w3.org/1999/xlink"><path d="M352 928v-115.584h-57.984a83.84 83.84 0 0 1-83.84-83.84 29.44 29.44 0 0 0-29.376-29.376h-46.72v-54.4h46.72a84.096 84.096 0 0 1 17.28 1.792 83.968 83.968 0 0 1 66.56 82.048 29.44 29.44 0 0 0 29.44 29.44H352v-24.448a127.936 127.936 0 0 1 13.888-57.92 391.872 391.872 0 0 1-58.88-25.408l-1.28-0.768c-31.872-17.216-59.712-38.4-82.304-62.528-40.32-43.008-64-95.488-64-152.128 0-54.08 21.568-104.32 58.56-146.176l-2.816-14.08a237.056 237.056 0 0 1 34.56-178.176 237.056 237.056 0 0 1 171.648 59.072l22.528 19.904a464.96 464.96 0 0 1 139.072 1.024l23.552-20.928a237.056 237.056 0 0 1 171.648-59.072c34.752 52.48 47.168 116.544 34.624 178.176l-4.352 21.248c33.28 40.384 52.48 88 52.48 139.008 0 88.32-57.6 166.592-146.048 214.528-18.368 9.92-38.016 18.56-58.752 25.728a127.872 127.872 0 0 1 15.872 61.888V928h-320zM452.992 238.784l-29.312 4.224-44.672-39.552a173.056 173.056 0 0 0-91.648-41.92 173.056 173.056 0 0 0-9.536 100.352l9.28 45.248-21.12 23.936c-28.288 32-42.56 67.584-42.56 103.808 0 70.272 56.96 144.192 163.072 180.288l69.76 23.68-33.28 65.856a63.936 63.936 0 0 0-6.976 28.928V864h192v-126.976a64 64 0 0 0-7.936-30.912l-36.736-66.624 71.872-24.832c105.216-36.288 161.664-109.824 161.664-179.776 0-34.24-12.672-67.84-37.76-98.304l-19.456-23.552 10.432-51.2a173.056 173.056 0 0 0-9.472-100.288 173.056 173.056 0 0 0-91.648 41.92l-46.208 40.96-29.824-4.8a399.872 399.872 0 0 0-119.936-0.832z" fill="#ffffff" fill-opacity=".9" p-id="3612"></path></svg>