<?xml version="1.0" standalone="no"?><!DOCTYPE svg PUBLIC "-//W3C//DTD SVG 1.1//EN" "http://www.w3.org/Graphics/SVG/1.1/DTD/svg11.dtd"><svg t="1669347696473" class="icon" viewBox="0 0 1024 1024" version="1.1" xmlns="http://www.w3.org/2000/svg" p-id="5038" xmlns:xlink="http://www.w3.org/1999/xlink" width="32" height="32"><path d="M512 800m-64 0a64 64 0 1 0 128 0 64 64 0 1 0-128 0Z" fill="#7F848E" p-id="5039"></path><path d="M512 352c-88.4 0-160 71.6-160 160s71.6 160 160 160 160-71.6 160-160-71.6-160-160-160z m0 256c-53.2 0-96-42.8-96-96s42.8-96 96-96 96 42.8 96 96-42.8 96-96 96z" fill="#7F848E" p-id="5040"></path><path d="M512 192c-176.8 0-320 143.2-320 320 0 118.4 64.4 221.6 160 277.2V712c-58.4-46.8-96-118.8-96-199.6 0-141.2 114.8-256 256-256s256 114.8 256 256c0 80.8-37.6 152.8-96 199.6v77.2c95.6-55.2 160-158.8 160-277.2 0-176.8-143.2-320-320-320z" fill="#7F848E" p-id="5041"></path><path d="M512 32C246.8 32 32 246.8 32 512c0 170.8 89.6 321.2 224 406V840c-97.2-76-160-194.8-160-328C96 282.4 282.4 96 512 96s416 186.4 416 416c0 133.2-62.8 251.6-160 328v78c134.4-85.2 224-235.2 224-406C992 246.8 777.2 32 512 32z" fill="#7F848E" p-id="5042"></path></svg>